<?xml version="1.0" encoding="UTF-8"?>
<svg version="1.1" xmlns="http://www.w3.org/2000/svg" width="727" height="719">
<path d="M0 0 C3.06923532 -0.00217556 6.1381038 -0.02035962 9.20727539 -0.03930664 C25.88740429 -0.08744941 42.27395032 1.10973147 58.72485352 3.93530273 C59.7192041 4.10594238 60.71355469 4.27658203 61.73803711 4.45239258 C111.99217748 13.37543615 165.21340701 32.99821036 204.81860352 66.02514648 C207.93450944 67.6544142 209.69166618 67.08292617 213.03735352 66.18530273 C214.78113435 65.55785536 216.51105119 64.8905285 218.22485352 64.18530273 C229.75032834 59.91776206 241.24825068 60.33432759 252.45947266 65.47460938 C265.48819386 71.87672842 273.37050353 80.85145279 278.24047852 94.57592773 C279.16574079 98.76682157 279.4205578 102.65631355 279.41235352 106.93530273 C279.41219238 107.72517578 279.41203125 108.51504883 279.41186523 109.32885742 C279.26269551 117.00717281 277.14818987 123.21915233 273.55297852 129.97436523 C272.9616468 133.65674912 273.24707427 134.06701661 275.26391602 137.00561523 C276.37986855 138.45366225 277.51406866 139.8877585 278.66235352 141.31030273 C279.88875337 142.91876376 281.1086244 144.53222009 282.32250977 146.15014648 C282.94657715 146.98143066 283.57064453 147.81271484 284.21362305 148.66918945 C314.76202252 190.81534808 331.92246303 243.08260181 339.03735352 294.18530273 C339.15594727 295.00804687 339.27454102 295.83079102 339.39672852 296.6784668 C343.43843437 326.11315198 342.57062551 357.8841244 338.03735352 387.18530273 C337.78791992 388.82861572 337.78791992 388.82861572 337.53344727 390.50512695 C328.19859504 450.04938342 302.95451489 507.05171409 264.03735352 553.18530273 C262.83852539 554.66256836 262.83852539 554.66256836 261.61547852 556.16967773 C255.01272025 564.20861878 247.80700715 571.62996306 240.47485352 578.99780273 C239.99216003 579.48567261 239.50946655 579.97354248 239.012146 580.47619629 C232.36818528 587.1762682 225.43158384 593.32151117 218.03735352 599.18530273 C216.75920637 600.23352191 215.48290138 601.28399521 214.20922852 602.33764648 C188.57341142 623.30074495 158.86159751 640.17697211 128.03735352 652.18530273 C127.1965625 652.51626953 126.35577148 652.84723633 125.48950195 653.18823242 C102.05188195 662.33056647 77.88276716 668.34935528 53.03735352 672.18530273 C51.44358887 672.43304443 51.44358887 672.43304443 49.81762695 672.68579102 C-36.2243543 685.40401111 -126.36842143 661.90937691 -196.24389648 610.63378906 C-204.08506865 604.80097481 -211.63597759 598.65284162 -218.96264648 592.18530273 C-219.70603271 591.52949219 -220.44941895 590.87368164 -221.21533203 590.19799805 C-234.362336 578.48952911 -247.22777043 566.17131268 -257.96264648 552.18530273 C-258.88214548 551.0624889 -259.80562084 549.94292443 -260.73217773 548.82592773 C-272.70040436 534.32364207 -282.80897338 518.59196344 -291.96264648 502.18530273 C-292.62562744 500.99710938 -292.62562744 500.99710938 -293.30200195 499.78491211 C-315.15606506 460.21951564 -327.83268688 417.00637649 -332.96264648 372.18530273 C-333.04853027 371.4487999 -333.13441406 370.71229706 -333.22290039 369.95347595 C-333.89207436 363.84250405 -334.13617309 357.8029989 -334.16577148 351.65795898 C-334.1727858 350.6795253 -334.17980011 349.70109161 -334.18702698 348.69300842 C-334.20446184 345.54455929 -334.2108814 342.3962984 -334.21264648 339.24780273 C-334.21332123 338.17117371 -334.21399597 337.09454468 -334.21469116 335.98529053 C-334.19829687 319.52265893 -333.68290108 303.45640609 -330.96264648 287.18530273 C-330.79104004 286.12907715 -330.61943359 285.07285156 -330.44262695 283.98461914 C-324.7400914 249.75411754 -314.18734993 217.34129485 -298.96264648 186.18530273 C-298.35018066 184.92943359 -298.35018066 184.92943359 -297.7253418 183.64819336 C-282.72813492 153.26073241 -262.18905306 126.49228329 -239.21264648 101.74780273 C-238.61057373 101.09706787 -238.00850098 100.44633301 -237.38818359 99.77587891 C-233.70620587 95.85820626 -229.85999166 92.25578218 -225.7800293 88.75537109 C-223.5208443 86.80362221 -221.37502466 84.74329024 -219.21264648 82.68530273 C-186.80389467 53.19020081 -146.20242761 31.31013661 -104.96264648 17.18530273 C-103.60816406 16.71616455 -103.60816406 16.71616455 -102.22631836 16.23754883 C-89.8375023 12.01408881 -77.26454903 9.01572886 -64.46264648 6.37280273 C-63.75207092 6.2255072 -63.04149536 6.07821167 -62.30938721 5.92645264 C-41.57449899 1.66684607 -21.14176896 -0.00167063 0 0 Z M-208.48168945 106.8059082 C-209.99202105 108.21266282 -211.52212245 109.59424315 -213.06030273 110.97045898 C-219.45205792 116.70089399 -225.35151985 122.67978511 -230.96264648 129.18530273 C-231.88363527 130.22124754 -232.80556038 131.25636044 -233.72827148 132.29077148 C-277.30683767 181.57674273 -302.1840047 244.16424267 -308.96264648 309.18530273 C-309.05908447 310.03946777 -309.15552246 310.89363281 -309.25488281 311.77368164 C-310.09464861 319.81838372 -310.16263412 327.85545525 -310.15014648 335.93530273 C-310.14954224 336.66006805 -310.14893799 337.38483337 -310.14831543 338.13156128 C-309.98602535 410.22893066 -284.83311829 478.97316349 -239.96264648 535.18530273 C-239.5158252 535.75071777 -239.06900391 536.31613281 -238.60864258 536.89868164 C-231.63154922 545.64974652 -223.78155748 553.56989285 -215.90014648 561.49780273 C-215.3931723 562.01013458 -214.88619812 562.52246643 -214.36386108 563.05032349 C-207.57032638 569.89823393 -200.55421494 576.21207696 -192.96264648 582.18530273 C-192.37201416 582.66088623 -191.78138184 583.13646973 -191.17285156 583.62646484 C-128.17215264 634.325313 -45.34879627 657.9932282 34.91235352 649.99780273 C91.31127512 643.7338069 147.18840819 623.43244133 192.03735352 588.18530273 C193.16406579 587.32475872 194.29171299 586.46543778 195.42016602 585.60717773 C214.65270558 570.88413528 233.43472951 553.51667871 248.03735352 534.18530273 C248.8043457 533.22366211 249.57133789 532.26202148 250.36157227 531.27124023 C272.02933225 504.01471027 288.50865743 472.9776127 300.03735352 440.18530273 C300.44679199 439.02297119 300.44679199 439.02297119 300.86450195 437.8371582 C327.78588491 360.11788762 321.09224421 273.6144264 285.64916992 199.75805664 C279.55541016 187.42044452 272.61016685 175.66829293 265.03735352 164.18530273 C264.30476318 163.07300293 264.30476318 163.07300293 263.55737305 161.93823242 C262.21551919 159.92337874 260.85309325 157.92539975 259.47485352 155.93530273 C259.08152832 155.35635254 258.68820312 154.77740234 258.28295898 154.1809082 C256.76389209 152.05500607 255.50710702 150.42115005 253.14672852 149.23608398 C250.19850356 149.1651082 247.69472143 149.8580533 244.84985352 150.62280273 C231.23154276 153.91364175 219.10242129 151.39835043 207.03735352 144.18530273 C197.27037651 137.48247538 192.14631604 127.00076609 189.45141602 115.73608398 C187.85595251 105.90742674 189.42630778 96.6814274 192.03735352 87.18530273 C167.14641077 67.51102464 138.74672436 53.07454247 109.03735352 42.18530273 C107.82692383 41.73767578 107.82692383 41.73767578 106.59204102 41.28100586 C86.05821213 33.78368861 64.6522348 29.19993053 43.03735352 26.18530273 C42.21364258 26.06670898 41.38993164 25.94811523 40.54125977 25.82592773 C-48.51178614 13.54274899 -143.34464213 45.50173294 -208.48168945 106.8059082 Z " fill="#357BA6" transform="translate(361.962646484375,21.814697265625)"/>
<path d="M0 0 C7.67220077 9.37529706 12.21210991 19.80366155 12.1875 31.96484375 C12.18617065 33.15074097 12.18617065 33.15074097 12.18481445 34.3605957 C12.05231991 40.94295161 10.62493355 46.25248463 7.8125 52.21484375 C7.55082031 52.93542969 7.28914062 53.65601563 7.01953125 54.3984375 C6.3125 56.33984375 6.3125 56.33984375 4.8125 59.21484375 C2.875 59.83984375 2.875 59.83984375 0.8125 60.21484375 C0.27625 60.91609375 -0.26 61.61734375 -0.8125 62.33984375 C-4.27989829 66.53722063 -8.67417049 69.22605493 -13.1875 72.21484375 C-11.8675 73.86484375 -10.5475 75.51484375 -9.1875 77.21484375 C-9.74695313 76.86808594 -10.30640625 76.52132812 -10.8828125 76.1640625 C-13.73517166 74.98927729 -15.09256455 75.31030326 -18.0625 76.02734375 C-18.94550781 76.22714844 -19.82851563 76.42695313 -20.73828125 76.6328125 C-21.54652344 76.82488281 -22.35476563 77.01695312 -23.1875 77.21484375 C-36.29867549 79.89059385 -48.78062791 77.17025356 -60.1875 70.21484375 C-70.37187723 63.32905024 -75.99137467 52.48573524 -78.76953125 40.7578125 C-80.47058539 30.40840835 -79.06957825 19.92653115 -75.1875 10.21484375 C-74.1975 9.88484375 -73.2075 9.55484375 -72.1875 9.21484375 C-70.7289059 7.52070602 -70.7289059 7.52070602 -69.375 5.46484375 C-67.39092813 2.68515409 -65.51497421 0.49149048 -62.8125 -1.59765625 C-61.94625 -2.31953125 -61.08 -3.04140625 -60.1875 -3.78515625 C-60.1875 -4.77515625 -60.1875 -5.76515625 -60.1875 -6.78515625 C-38.95038766 -14.84146221 -17.99053791 -17.09876556 0 0 Z " fill="#C2654D" transform="translate(629.1875,96.78515625)"/>
<path d="M0 0 C5.95883064 3.93507684 8.9541646 8.55878117 10.5703125 15.421875 C11.60642756 22.5203654 10.5651418 28.30412819 6.44921875 34.234375 C1.62181098 40.10005007 -2.72551147 42.85144244 -10.3125 43.875 C-17.04857621 44.32407175 -22.16916941 42.82431304 -27.8125 39.1875 C-33.22640272 33.77359728 -35.60952145 28.21716839 -36.3125 20.625 C-35.67083948 13.18173795 -33.49173916 7.24766187 -28 2 C-18.82468046 -3.70258904 -9.9463282 -4.50125802 0 0 Z " fill="#171614" transform="translate(378,339)"/>
<path d="M0 0 C0.99 0.495 0.99 0.495 2 1 C1.57589844 1.4125 1.15179688 1.825 0.71484375 2.25 C-2.44388984 5.36013769 -5.48891907 8.50903208 -8.375 11.875 C-13.33395838 17.61227023 -18.58799589 23.11255224 -24.5 27.875 C-29.36507524 31.95718957 -33.09686244 37.02414583 -37 42 C-38.10601562 43.36511719 -38.10601562 43.36511719 -39.234375 44.7578125 C-59.92216874 70.79111 -77.55701817 100.85052894 -89.10546875 132.09277344 C-90 134 -90 134 -92 135 C-86.1570355 92.72443332 -47.25844731 48.72624548 -19.25 18.5625 C-18.64792725 17.91176514 -18.04585449 17.26103027 -17.42553711 16.59057617 C-13.72100088 12.64890098 -9.85379788 9.01540605 -5.73925781 5.50341797 C-3.72558072 3.76279142 -1.84299456 1.919786 0 0 Z " fill="#65869B" transform="translate(142,105)"/>
<path d="M0 0 C7.12266262 5.86743929 13.46901032 12.43990044 19.91015625 19.03710938 C25.31427121 24.50847906 30.82697079 29.46811917 36.87402344 34.21166992 C39 36 39 36 40 38 C34.7183754 36.49529242 31.52162545 33.03552623 27.6875 29.3125 C26.34334408 28.03030987 24.99830214 26.74904789 23.65234375 25.46875 C23.01538574 24.8603125 22.37842773 24.251875 21.72216797 23.625 C19.78078798 21.79315634 17.78541542 20.03900622 15.75 18.3125 C12.41258543 15.42449446 9.21912712 12.39572896 6.0625 9.3125 C5.12535156 8.40113281 4.18820313 7.48976563 3.22265625 6.55078125 C1.06268554 4.07193964 0.60376638 3.07761645 0 0 Z " fill="#6F8999" transform="translate(130,567)"/>
<path d="M0 0 C0.66 0.33 1.32 0.66 2 1 C1.57589844 1.4125 1.15179688 1.825 0.71484375 2.25 C-2.48537175 5.40098142 -5.56836553 8.59637902 -8.5 12 C-11.82158717 15.85635518 -15.35280293 19.45257428 -19 23 C-19.71484375 21.23828125 -19.71484375 21.23828125 -20 19 C-18.62890625 17.10546875 -18.62890625 17.10546875 -16.5625 15.1875 C-15.82644531 14.49527344 -15.09039062 13.80304688 -14.33203125 13.08984375 C-11.49728039 10.54948913 -8.65133236 8.02535874 -5.765625 5.54296875 C-3.75058361 3.78203656 -1.85305602 1.93026669 0 0 Z " fill="#6992AA" transform="translate(142,105)"/>
<path d="M0 0 C0.66 0 1.32 0 2 0 C3.9169573 5.62257161 4.24889924 10.52369385 4.125 16.4375 C4.11597656 17.26443359 4.10695313 18.09136719 4.09765625 18.94335938 C4.07431512 20.96236708 4.03845288 22.98122356 4 25 C3.34 25 2.68 25 2 25 C1.90912109 23.17275391 1.90912109 23.17275391 1.81640625 21.30859375 C1.73193597 19.68488723 1.64729128 18.06118978 1.5625 16.4375 C1.50352539 15.23770508 1.50352539 15.23770508 1.44335938 14.01367188 C1.19251844 9.28628494 0.74678186 4.67523099 0 0 Z " fill="#9F7C73" transform="translate(637,113)"/>
<path d="M0 0 C0.66 0 1.32 0 2 0 C2.45439453 1.01320313 2.45439453 1.01320313 2.91796875 2.046875 C5.99283398 8.59397265 8.3014109 12.604306 15.3125 15.25 C16.199375 15.4975 17.08625 15.745 18 16 C18 16.33 18 16.66 18 17 C14.03780265 17.4831948 11.63072987 17.07595777 8.375 14.875 C4.08566717 11.50616558 1.448062 8.016279 0.25 2.625 C0.1675 1.75875 0.085 0.8925 0 0 Z " fill="#535453" transform="translate(343,364)"/>
<path d="M0 0 C0.66 0 1.32 0 2 0 C2.84137043 2.8937133 3.6733036 5.78959397 4.5 8.6875 C4.73847656 9.50412109 4.97695312 10.32074219 5.22265625 11.16210938 C6.36464868 15.19171125 7.34500623 18.76504847 7 23 C5 22 5 22 4.31396484 20.29760742 C4.11496582 19.57420166 3.9159668 18.8507959 3.7109375 18.10546875 C3.49179687 17.31462891 3.27265625 16.52378906 3.046875 15.70898438 C2.71429688 14.46084961 2.71429688 14.46084961 2.375 13.1875 C2.14554688 12.36701172 1.91609375 11.54652344 1.6796875 10.70117188 C0.64853638 6.91721553 0 3.97275441 0 0 Z " fill="#658395" transform="translate(60,435)"/>
<path d="M0 0 C5.12524666 0.63315791 9.96530771 1.68160656 14.9375 3.0625 C15.96327148 3.3419043 15.96327148 3.3419043 17.00976562 3.62695312 C18.67420293 4.08089057 20.33725312 4.53990916 22 5 C22 5.33 22 5.66 22 6 C14.17509977 6.62599202 7.39062767 4.32514129 0 2 C0 1.34 0 0.68 0 0 Z " fill="#617A8A" transform="translate(267,681)"/>
<path d="M0 0 C0.66 0 1.32 0 2 0 C5.44419134 10.37357631 5.44419134 10.37357631 5 16 C2.70311431 13.70311431 2.28148697 12.21071829 1.375 9.125 C1.11460937 8.26132812 0.85421875 7.39765625 0.5859375 6.5078125 C0 4 0 4 0 0 Z " fill="#638397" transform="translate(686,257)"/>
<path d="M0 0 C3.38891322 0.68886787 6.18011613 1.98716486 9.25 3.5625 C10.14203125 4.01753906 11.0340625 4.47257813 11.953125 4.94140625 C12.96632813 5.46541016 12.96632813 5.46541016 14 6 C14 6.33 14 6.66 14 7 C7.84971823 6.62345214 4.77780324 4.90024754 0 1 C0 0.67 0 0.34 0 0 Z " fill="#886E67" transform="translate(567,164)"/>
<path d="M0 0 C1.12894876 0.93274109 2.25300876 1.87140122 3.375 2.8125 C4.00148437 3.33457031 4.62796875 3.85664062 5.2734375 4.39453125 C7 6 7 6 9 9 C6 9 6 9 4.39453125 7.5390625 C3.61142578 6.59160156 3.61142578 6.59160156 2.8125 5.625 C2.28269531 4.99851562 1.75289062 4.37203125 1.20703125 3.7265625 C0 2 0 2 0 0 Z " fill="#5C7F94" transform="translate(130,567)"/>
<path d="M0 0 C0.66 0 1.32 0 2 0 C1.33501617 4.38889325 -0.18757677 7.9811485 -2 12 C-3.15957207 8.52128379 -2.77456651 7.65780355 -1.5625 4.3125 C-1.13130859 3.10013672 -1.13130859 3.10013672 -0.69140625 1.86328125 C-0.46324219 1.24839844 -0.23507812 0.63351562 0 0 Z " fill="#65869B" transform="translate(664,453)"/>
<path d="M0 0 C0.66 0 1.32 0 2 0 C3.32 2.97 4.64 5.94 6 9 C4.68 8.67 3.36 8.34 2 8 C0.47835901 5.10888212 0 3.28176588 0 0 Z " fill="#3F3F3F" transform="translate(343,364)"/>
<path d="M0 0 C2.46800047 1.15173355 4.04783565 2.04783565 6 4 C5.67 4.99 5.34 5.98 5 7 C3.29115995 5.37660195 1.62553283 3.70680947 0 2 C0 1.34 0 0.68 0 0 Z " fill="#B0928A" transform="translate(624,94)"/>
</svg>
